<?xml version="1.0" standalone="no"?>
<!DOCTYPE svg PUBLIC "-//W3C//DTD SVG 20010904//EN"
 "http://www.w3.org/TR/2001/REC-SVG-20010904/DTD/svg10.dtd">
<svg version="1.0" xmlns="http://www.w3.org/2000/svg"
 width="465.000000pt" height="465.000000pt" viewBox="0 0 465.000000 465.000000"
 preserveAspectRatio="xMidYMid meet">
<metadata>
Created by potrace 1.11, written by Peter Selinger 2001-2013
</metadata>
<g transform="translate(0.000000,465.000000) scale(0.100000,-0.100000)"
fill="#000000" stroke="none">
<path d="M3090 4174 c-296 -37 -570 -166 -770 -363 -103 -102 -166 -189 -237
-325 l-51 -100 -29 48 c-83 142 -217 275 -362 358 -582 333 -1381 39 -1611
-591 -34 -93 -37 -122 -14 -161 48 -80 166 -79 207 2 9 18 34 73 56 121 90
198 241 348 445 443 212 97 471 108 683 29 222 -84 404 -284 457 -506 23 -92
21 -247 -4 -343 -55 -216 -213 -380 -435 -453 -114 -37 -267 -38 -374 -4 -224
74 -372 269 -371 491 1 172 84 312 224 376 182 83 371 32 464 -125 35 -61 43
-188 14 -241 -47 -85 -176 -99 -211 -23 -6 13 -11 53 -11 89 0 59 -3 69 -28
94 -39 39 -90 47 -138 24 -55 -28 -74 -72 -74 -170 0 -70 4 -89 31 -142 60
-121 171 -186 314 -186 104 1 176 28 250 95 142 130 172 358 75 556 -178 362
-679 421 -976 116 -117 -121 -175 -274 -176 -463 -2 -301 164 -556 445 -685
99 -45 184 -65 302 -72 310 -17 624 138 795 393 l49 74 46 -93 c184 -370 544
-602 971 -624 419 -22 821 215 974 574 61 145 75 213 75 383 0 130 -4 168 -23
239 -65 239 -221 423 -445 526 -194 88 -431 97 -615 22 -197 -79 -332 -217
-404 -409 -39 -106 -50 -271 -24 -382 35 -148 127 -266 258 -330 135 -66 279
-69 407 -9 82 39 182 142 211 218 27 72 37 201 21 263 -23 84 -106 143 -178
126 -95 -23 -123 -65 -123 -187 0 -84 -1 -90 -28 -117 -75 -75 -228 -29 -260
78 -19 64 -15 183 9 247 53 142 215 245 388 245 132 0 249 -48 349 -144 106
-101 152 -218 152 -384 0 -181 -57 -320 -185 -447 -88 -89 -170 -137 -295
-177 -65 -20 -95 -23 -225 -22 -141 0 -156 2 -245 32 -288 96 -489 314 -552
596 -26 121 -21 333 11 444 44 149 128 288 242 398 92 87 145 124 263 180 154
73 239 89 456 88 168 0 194 -3 285 -27 119 -32 311 -125 406 -197 170 -128
299 -296 372 -484 23 -60 54 -122 68 -137 88 -94 259 -25 259 105 0 40 -37
148 -87 254 -127 270 -389 522 -684 661 -211 98 -349 130 -584 136 -93 2 -186
1 -205 -1z"/>
<path d="M553 1566 c-28 -24 -28 -25 -28 -151 0 -126 0 -127 28 -151 28 -24
31 -24 238 -24 189 0 214 2 249 20 56 28 83 72 88 141 6 77 -27 137 -91 168
-40 19 -61 21 -250 21 -203 0 -206 0 -234 -24z m466 -82 c26 -21 31 -33 31
-67 -1 -79 -37 -99 -180 -102 -58 -1 -142 0 -187 3 l-83 5 0 93 0 94 194 0
194 0 31 -26z"/>
<path d="M1335 1579 c-39 -11 -84 -53 -101 -95 -34 -82 0 -181 76 -221 40 -21
55 -23 215 -23 184 0 204 5 190 49 -8 27 -56 35 -174 28 -128 -8 -188 3 -218
37 -33 39 -31 90 6 127 l29 29 164 0 c151 0 166 -2 186 -20 12 -12 22 -25 22
-30 0 -6 -79 -10 -200 -10 -178 0 -200 -2 -209 -17 -6 -11 -6 -24 0 -35 9 -16
30 -18 248 -18 266 0 269 1 257 64 -10 51 -46 99 -96 124 -41 20 -57 22 -205
21 -88 0 -173 -5 -190 -10z"/>
<path d="M2172 1569 c-63 -32 -96 -92 -90 -168 5 -69 32 -113 90 -142 38 -19
54 -20 271 -17 l231 3 9 35 c13 51 3 169 -18 213 -10 22 -36 51 -58 65 -39 26
-45 27 -216 30 -163 2 -179 1 -219 -19z m381 -70 c64 -29 66 -136 4 -171 -15
-9 -70 -12 -172 -12 -196 0 -225 13 -225 101 0 25 8 43 29 64 l29 29 156 0
c92 0 165 -4 179 -11z"/>
<path d="M2862 1578 c-7 -7 -12 -19 -12 -27 0 -24 291 -311 315 -311 24 0 315
287 315 311 0 20 -20 39 -40 39 -8 0 -71 -56 -140 -125 -69 -69 -129 -125
-135 -125 -6 0 -66 56 -135 125 -69 69 -132 125 -140 125 -9 0 -21 -5 -28 -12z"/>
<path d="M3612 1573 c-4 -10 -7 -58 -7 -108 0 -77 4 -96 25 -135 15 -27 41
-53 65 -67 38 -22 48 -23 226 -21 l186 3 36 28 c50 38 66 73 73 159 7 89 -5
152 -29 156 -36 7 -47 -16 -47 -100 0 -87 -17 -140 -50 -158 -29 -15 -311 -16
-348 -1 -43 18 -55 47 -60 151 -3 53 -10 98 -16 102 -20 13 -46 8 -54 -9z"/>
<path d="M1922 1568 c-8 -8 -12 -60 -12 -168 0 -178 -3 -186 -88 -211 -40 -12
-43 -15 -40 -43 3 -27 7 -31 35 -34 57 -6 139 50 162 111 6 16 11 97 11 181 0
155 -5 176 -40 176 -9 0 -21 -5 -28 -12z"/>
<path d="M1500 1065 c-19 -23 -8 -50 22 -53 19 -2 28 2 33 18 12 39 -29 66
-55 35z"/>
<path d="M622 939 c-127 -63 -128 -245 -2 -309 35 -18 58 -20 234 -20 l195 0
3 -56 c2 -41 8 -60 21 -68 32 -20 52 4 55 68 l3 56 280 0 c307 0 324 3 372 59
74 89 52 211 -48 268 -37 21 -52 23 -208 23 -189 0 -214 -6 -264 -63 -44 -50
-54 -121 -26 -193 4 -11 -6 -14 -51 -14 l-56 0 0 72 c0 91 -29 146 -93 177
-39 19 -61 21 -208 21 -148 0 -168 -2 -207 -21z m397 -85 c26 -21 31 -33 31
-69 0 -36 -5 -48 -31 -69 -17 -14 -43 -26 -57 -27 -130 -4 -282 1 -305 10 -65
26 -66 133 -2 169 12 7 79 12 177 12 154 0 157 0 187 -26z m675 16 c37 -14 62
-70 50 -111 -17 -59 -43 -69 -189 -70 -196 -2 -193 -2 -226 30 -21 22 -29 39
-29 66 0 27 8 44 29 66 l29 29 156 0 c85 0 166 -4 180 -10z"/>
<path d="M1914 935 c-11 -43 2 -198 19 -230 19 -38 54 -71 90 -84 18 -7 166
-11 419 -11 l390 0 47 26 48 25 48 -25 c46 -25 54 -26 231 -26 105 0 195 5
211 11 77 29 112 98 113 221 0 102 -5 118 -35 118 -36 0 -43 -19 -47 -123 -3
-92 -5 -100 -29 -121 -23 -20 -42 -24 -140 -29 -63 -3 -147 -2 -188 2 -63 6
-77 11 -97 35 -22 24 -24 37 -24 120 0 101 -9 120 -52 114 -22 -3 -23 -8 -28
-103 -6 -125 -19 -149 -87 -163 -26 -5 -67 -7 -90 -5 l-41 5 5 74 c5 67 4 77
-20 113 -15 23 -44 47 -70 60 -42 20 -56 21 -278 19 l-234 -3 -3 -23 c-7 -50
4 -52 240 -52 267 0 287 -7 288 -98 0 -32 -6 -49 -25 -67 l-24 -25 -245 0
-246 0 -32 29 c-32 29 -33 31 -38 133 l-5 103 -32 3 c-28 3 -33 -1 -39 -23z"/>
<path d="M3600 941 c-13 -25 -13 -27 6 -45 13 -14 49 -16 238 -16 213 0 225
-1 250 -21 38 -30 49 -64 36 -105 -20 -61 -35 -64 -275 -64 -221 0 -255 -5
-255 -38 0 -39 16 -42 249 -42 200 0 231 3 268 19 130 59 130 247 1 310 -41
20 -60 21 -276 21 -218 0 -232 -1 -242 -19z"/>
<path d="M2300 556 c-27 -33 18 -72 48 -42 13 13 14 20 6 34 -15 23 -38 26
-54 8z"/>
<path d="M3130 555 c-18 -22 -1 -50 31 -50 20 0 24 5 24 30 0 23 -5 31 -21 33
-11 2 -27 -4 -34 -13z"/>
<path d="M3214 556 c-11 -28 1 -51 25 -51 32 0 49 28 32 49 -17 20 -50 21 -57
2z"/>
</g>
</svg>
